# xmcd CD database file
#
# Track frame offsets:
#	150
#	20631
#	43948
#	68265
#	88322
#	102151
#	123254
#	145816
#	166985
#	192331
#	223268
#
# Disc length: 3262 seconds
#
# Revision: 2
# Processed by: cddbd v1.5.2PL0 Copyright (c) Steve Scherf et al.
# Submitted via: CDex 1.51
#
DISCID=9d0cbc0b
DTITLE=Matthias Vogt Trio - Coming Up For Air
DYEAR=2009
DGENRE=Jazz
TTITLE0=Inhale
TTITLE1=Meu Amor (feat. Liza da Costa)
TTITLE2=Shelter
TTITLE3=Stop and Go
TTITLE4=Approximation
TTITLE5=Such A Shame
TTITLE6=The Rainy Season (feat. Jutta Gückel)
TTITLE7=Coming Up For Air
TTITLE8=The Fifth Day
TTITLE9=Voyager
TTITLE10=There She Goes
EXTD=YEAR: 2009
EXTT0=
EXTT1=
EXTT2=
EXTT3=
EXTT4=
EXTT5=
EXTT6=
EXTT7=
EXTT8=
EXTT9=
EXTT10=
PLAYORDER=
